<?xml version="1.0" encoding="UTF-8" standalone="no"?>
<!-- Created with Inkscape (http://www.inkscape.org/) -->

<svg
   width="38.323833mm"
   height="31.548092mm"
   viewBox="0 0 38.323833 31.548092"
   version="1.1"
   id="svg1"
   xml:space="preserve"
   xmlns:inkscape="http://www.inkscape.org/namespaces/inkscape"
   xmlns:sodipodi="http://sodipodi.sourceforge.net/DTD/sodipodi-0.dtd"
   xmlns="http://www.w3.org/2000/svg"
   xmlns:svg="http://www.w3.org/2000/svg"><sodipodi:namedview
     id="namedview1"
     pagecolor="#ffffff"
     bordercolor="#000000"
     borderopacity="0.25"
     inkscape:showpageshadow="2"
     inkscape:pageopacity="0.0"
     inkscape:pagecheckerboard="0"
     inkscape:deskcolor="#d1d1d1"
     inkscape:document-units="mm"
     showborder="false" /><defs
     id="defs1"><clipPath
       clipPathUnits="userSpaceOnUse"
       id="clipPath5"><rect
         style="fill:#1a1a1a;fill-rule:evenodd;stroke:#08c06f;stroke-width:0;stroke-dasharray:none;paint-order:markers fill stroke"
         id="rect6"
         width="39.270294"
         height="35.855488"
         x="35.428635"
         y="91.772964" /></clipPath><clipPath
       clipPathUnits="userSpaceOnUse"
       id="clipPath5-8"><rect
         style="fill:#1a1a1a;fill-rule:evenodd;stroke:#08c06f;stroke-width:0;stroke-dasharray:none;paint-order:markers fill stroke"
         id="rect6-8"
         width="39.270294"
         height="35.855488"
         x="35.428635"
         y="91.772964" /></clipPath><clipPath
       clipPathUnits="userSpaceOnUse"
       id="clipPath5-3"><rect
         style="fill:#1a1a1a;fill-rule:evenodd;stroke:#08c06f;stroke-width:0;stroke-dasharray:none;paint-order:markers fill stroke"
         id="rect6-5"
         width="39.270294"
         height="35.855488"
         x="35.428635"
         y="91.772964" /></clipPath><clipPath
       clipPathUnits="userSpaceOnUse"
       id="clipPath12"><rect
         style="fill:#ffffff;fill-opacity:1;fill-rule:evenodd;stroke:#08c06f;stroke-width:0;stroke-dasharray:none;paint-order:markers fill stroke"
         id="rect13"
         width="35.314026"
         height="32.446651"
         x="36.219509"
         y="92.8125" /></clipPath></defs><g
     inkscape:label="Layer 1"
     inkscape:groupmode="layer"
     id="layer1"
     transform="translate(-28.803343,-161.79008)"><g
       inkscape:label="Layer 1"
       id="layer1-7"
       transform="translate(-9.2510752,-31.281436)"><path
         style="fill:#000000"
         d="m 40.954293,124.84663 c -1.869181,-0.20282 -3.271223,-1.14748 -4.156046,-2.80023 L 36.375095,121.256 V 109.2622 97.268398 l 0.459198,-0.92406 c 0.539579,-1.08581 1.51198,-1.99346 2.748742,-2.56571 l 0.887504,-0.41065 h 13.163924 13.163925 l 1.112419,0.54627 c 1.223136,0.60064 1.985287,1.38185 2.511289,2.57407 l 0.34417,0.78008 0.06378,11.798782 0.06378,11.79877 -0.546271,1.11242 c -0.6002,1.22224 -1.380397,1.98386 -2.574066,2.51278 l -0.780085,0.34566 -12.481351,0.0633 c -6.864743,0.0348 -12.965737,0.0108 -13.557765,-0.0535 z m 7.027947,-6.90073 2.319379,-1.84744 2.885304,-0.054 2.885304,-0.054 0.121352,-0.9942 c 0.528488,-4.32975 5.117874,-6.31788 8.240073,-3.56961 l 0.849193,0.74749 0.09669,-5.01509 c 0.124024,-6.43256 -0.100416,-7.377152 -1.939001,-8.160562 l -0.627555,-0.2674 h -9.257071 c -10.570659,0 -10.613488,0.007 -11.535335,1.778022 l -0.265602,0.51038 -0.0508,6.21785 -0.0508,6.21784 0.421207,0.79905 c 0.508416,0.96449 1.095976,1.37605 2.391386,1.67507 l 0.977607,0.22566 v 1.8192 c 0,1.00057 0.04934,1.81921 0.109642,1.81921 0.0603,0 1.153363,-0.83135 2.429021,-1.84744 z m -2.043749,-6.60361 -0.382681,-0.28269 0.260295,-0.31364 0.260294,-0.31363 h 4.340216 4.340216 l 0.24964,0.30079 0.249639,0.3008 -0.235125,0.23551 c -0.165327,0.1656 -1.49153,0.25333 -4.467469,0.29554 l -4.232344,0.06 z m -0.109851,-3.74377 c -0.52532,-0.63297 0.07047,-0.6816 7.720388,-0.63014 l 7.593748,0.0511 v 0.39004 0.39004 l -7.531308,0.051 -7.531307,0.051 z m -0.123677,-3.71024 c -0.244254,-0.63652 0.255418,-0.67635 7.844065,-0.6253 l 7.593748,0.0511 v 0.39004 0.39004 l -7.659829,0.051 -7.659828,0.051 z m 16.802961,15.18485 c 0.849045,-0.21528 1.853302,-1.1062 2.333796,-2.07043 1.846056,-3.70455 -2.330736,-7.41347 -5.841408,-5.18706 l -0.905228,0.57407 -0.497759,1.08725 -0.497759,1.08725 0.08801,1.06123 c 0.147673,1.78075 1.486341,3.25806 3.25412,3.59114 0.659058,0.12418 1.143261,0.0906 2.066232,-0.14345 z m -1.198372,-1.91586 c -0.06991,-0.18219 0.05803,-0.56064 0.300348,-0.88839 0.472192,-0.63867 0.532782,-0.6134 -1.374263,-0.57332 -2.25146,0.0473 -2.090362,-0.71609 0.17578,-0.83298 1.632229,-0.0842 1.751468,-0.14539 1.220107,-0.62626 -0.21518,-0.19474 -0.391237,-0.46479 -0.391237,-0.60012 0,-0.56996 0.551433,-0.36559 1.50094,0.55626 l 1.013387,0.98387 -0.888673,0.99211 c -1.092564,1.21974 -1.394235,1.4114 -1.556389,0.98883 z m 21.188035,0.18006 c -2.226641,-0.59186 -3.938508,-2.23754 -4.696313,-4.51474 l -0.417229,-1.25377 0.07379,-1.99344 0.07379,-1.99344 0.636242,-1.29239 c 2.720206,-5.52552 11.284274,-5.25854 13.53336,0.4219 l 0.430814,1.08809 v 2.14523 2.14523 l -0.435757,1.10131 c -1.357805,3.43162 -5.263537,5.19201 -9.1987,4.14602 z m 3.708444,-3.5639 c 0.436014,-0.23375 0.854251,-0.70363 1.167084,-1.31119 l 0.487553,-0.94689 v -1.57058 -1.57058 l -0.487553,-0.94689 c -1.133083,-2.20059 -3.990573,-2.24157 -5.115771,-0.0734 -0.837903,1.6146 -0.568507,4.96911 0.478019,5.95227 0.935586,0.87894 2.348017,1.06908 3.470668,0.46723 z m 30.127719,3.60053 c -3.61005,-0.89215 -5.65637,-4.00626 -5.30512,-8.07338 0.31912,-3.69506 2.24221,-6.04806 5.54324,-6.78247 l 1.4994,-0.33359 1.32232,0.20468 c 3.77472,0.58427 6.00864,3.39688 6.00864,7.56517 v 1.06302 h -4.16574 c -2.29115,0 -4.5729,0.0558 -5.07054,0.12402 l -0.90482,0.12402 v 0.3713 c 0,2.39392 3.48546,3.55071 5.40388,1.79351 l 0.718,-0.65766 h 1.80308 c 2.0963,0 2.17603,0.0647 1.59694,1.2967 -1.30551,2.77735 -4.89778,4.18236 -8.44928,3.30468 z m 4.77801,-9.45389 c 0,-2.56653 -4.01595,-3.2169 -5.38967,-0.87283 -0.76553,1.30628 -0.70655,1.33737 2.53704,1.33737 h 2.85263 z m 10.23454,9.38865 c -1.92971,-0.69076 -3.04098,-1.89643 -3.78579,-4.10736 l -0.40309,-1.19656 v -2.03333 c 0,-3.36749 1.03147,-5.69573 3.04653,-6.87664 l 0.91548,-0.5365 1.60249,-0.0841 c 1.96932,-0.10336 2.80349,0.14797 3.92637,1.183 l 0.84525,0.77913 v -3.63933 -3.639322 l 2.09647,0.0554 2.09648,0.0554 0.0505,9.994832 0.0505,9.99483 h -2.04949 -2.04949 v -1.00755 -1.00756 l -0.73133,0.78595 c -1.40611,1.51112 -3.57973,2.00691 -5.61093,1.27982 z m 4.77004,-3.72478 c 0.26153,-0.19135 0.65644,-0.59011 0.87759,-0.88614 l 0.4021,-0.53823 0.0694,-1.77524 c 0.0847,-2.16637 -0.15738,-3.04733 -1.05373,-3.83434 l -0.68695,-0.60315 h -1.18629 -1.18628 l -0.7384,0.7384 c -1.86343,1.86342 -1.5192,5.93615 0.59373,7.02473 l 0.87313,0.44984 0.78008,-0.11398 c 0.42905,-0.0627 0.99406,-0.27053 1.25559,-0.46189 z m -41.286041,-3.59041 0.05113,-7.26454 1.982013,-0.0554 1.982011,-0.0554 0.12381,0.56368 c 0.0681,0.31002 0.10921,0.64211 0.0914,0.73796 -0.12257,0.6586 0.0783,0.67243 0.598578,0.0412 0.32165,-0.39022 0.983819,-0.90264 1.471479,-1.13872 l 0.88666,-0.42922 h 1.47183 1.47183 l 1.09687,0.56097 c 2.24029,1.14572 2.57253,2.35425 2.57253,9.35755 v 4.94642 h -2.14523 -2.14523 v -4.57905 -4.57905 l -0.29823,-0.74534 c -0.76543,-1.913 -3.87983,-1.87786 -4.686537,0.0529 l -0.2808,0.67203 v 4.58926 4.58926 h -2.147606 -2.147606 z m 50.269061,-0.0488 v -7.31329 h 2.04772 2.04772 v 1.00756 1.00755 l 0.74628,-0.80835 c 1.85292,-2.00708 5.2236,-1.97292 7.02289,0.0712 l 0.74203,0.84298 0.33289,-0.56353 c 0.4723,-0.79955 1.26809,-1.30853 2.58949,-1.6562 2.89504,-0.76173 5.30173,0.56276 6.0125,3.30888 l 0.30084,1.16234 v 5.12709 5.12708 h -2.13599 -2.136 l -0.058,-5.08684 -0.058,-5.08684 -0.66167,-0.59091 -0.66167,-0.5909 -0.95362,0.0916 c -2.01639,0.19375 -2.33877,1.15653 -2.30231,6.87589 0.0137,2.14523 0.0184,4.01012 0.0106,4.1442 -0.0105,0.17863 -0.56148,0.24377 -2.06202,0.24377 h -2.04772 v -4.7877 -4.7877 l -0.29583,-0.57208 c -0.84944,-1.64263 -3.21086,-1.48753 -4.00568,0.2631 l -0.37043,0.8159 -0.004,4.53424 -0.004,4.53424 h -2.04772 -2.04772 z"
         id="path1" /><text
         xml:space="preserve"
         style="font-size:28.901px;line-height:4.4;font-family:Sans;-inkscape-font-specification:'Sans, Normal';text-align:center;letter-spacing:0px;text-anchor:middle;fill:#1a1a1a;fill-opacity:1;fill-rule:evenodd;stroke:#08c06f;stroke-width:0;stroke-dasharray:none;paint-order:markers fill stroke"
         x="134.81824"
         y="220.46783"
         id="text5"
         inkscape:export-filename="1dmLight.svg"
         inkscape:export-xdpi="96"
         inkscape:export-ydpi="96"><tspan
           sodipodi:role="line"
           id="tspan5"
           x="134.81824"
           y="220.46783"
           style="font-style:normal;font-variant:normal;font-weight:bold;font-stretch:normal;font-size:31.2984px;line-height:4.4;font-family:Sans;-inkscape-font-specification:'Sans, Bold';font-variant-ligatures:normal;font-variant-caps:normal;font-variant-numeric:normal;font-variant-east-asian:normal;letter-spacing:0px;direction:ltr;fill:#1a1a1a;fill-opacity:1;stroke-width:0"
           dy="0"
           dx="0">onedm</tspan></text><path
         style="fill:#08c06f;fill-opacity:1"
         d="m 40.954293,124.84663 c -1.869181,-0.20282 -3.271223,-1.14748 -4.156046,-2.80023 L 36.375095,121.256 V 109.2622 97.268398 l 0.459198,-0.92406 c 0.539579,-1.08581 1.51198,-1.99346 2.748742,-2.56571 l 0.887504,-0.41065 h 13.163924 13.163925 l 1.112419,0.54627 c 1.223136,0.60064 1.985287,1.38185 2.511289,2.57407 l 0.34417,0.78008 0.06378,11.798782 0.06378,11.79877 -0.546271,1.11242 c -0.6002,1.22224 -1.380397,1.98386 -2.574066,2.51278 l -0.780085,0.34566 -12.481351,0.0633 c -6.864743,0.0348 -12.965737,0.0108 -13.557765,-0.0535 z m 7.027947,-6.90073 2.319379,-1.84744 2.885304,-0.054 2.885304,-0.054 0.121352,-0.9942 c 0.528488,-4.32975 5.117874,-6.31788 8.240073,-3.56961 l 0.849193,0.74749 0.09669,-5.01509 c 0.124024,-6.43256 -0.100416,-7.377152 -1.939001,-8.160562 l -0.627555,-0.2674 h -9.257071 c -10.570659,0 -10.613488,0.007 -11.535335,1.778022 l -0.265602,0.51038 -0.0508,6.21785 -0.0508,6.21784 0.421207,0.79905 c 0.508416,0.96449 1.095976,1.37605 2.391386,1.67507 l 0.977607,0.22566 v 1.8192 c 0,1.00057 0.04934,1.81921 0.109642,1.81921 0.0603,0 1.153363,-0.83135 2.429021,-1.84744 z m -2.043749,-6.60361 -0.382681,-0.28269 0.260295,-0.31364 0.260294,-0.31363 h 4.340216 4.340216 l 0.24964,0.30079 0.249639,0.3008 -0.235125,0.23551 c -0.165327,0.1656 -1.49153,0.25333 -4.467469,0.29554 l -4.232344,0.06 z m -0.109851,-3.74377 c -0.52532,-0.63297 0.07047,-0.6816 7.720388,-0.63014 l 7.593748,0.0511 v 0.39004 0.39004 l -7.531308,0.051 -7.531307,0.051 z m -0.123677,-3.71024 c -0.244254,-0.63652 0.255418,-0.67635 7.844065,-0.6253 l 7.593748,0.0511 v 0.39004 0.39004 l -7.659829,0.051 -7.659828,0.051 z m 16.802961,15.18485 c 0.849045,-0.21528 1.853302,-1.1062 2.333796,-2.07043 1.846056,-3.70455 -2.330736,-7.41347 -5.841408,-5.18706 l -0.905228,0.57407 -0.497759,1.08725 -0.497759,1.08725 0.08801,1.06123 c 0.147673,1.78075 1.486341,3.25806 3.25412,3.59114 0.659058,0.12418 1.143261,0.0906 2.066232,-0.14345 z m -1.198372,-1.91586 c -0.06991,-0.18219 0.05803,-0.56064 0.300348,-0.88839 0.472192,-0.63867 0.532782,-0.6134 -1.374263,-0.57332 -2.25146,0.0473 -2.090362,-0.71609 0.17578,-0.83298 1.632229,-0.0842 1.751468,-0.14539 1.220107,-0.62626 -0.21518,-0.19474 -0.391237,-0.46479 -0.391237,-0.60012 0,-0.56996 0.551433,-0.36559 1.50094,0.55626 l 1.013387,0.98387 -0.888673,0.99211 c -1.092564,1.21974 -1.394235,1.4114 -1.556389,0.98883 z m 21.188035,0.18006 c -2.226641,-0.59186 -3.938508,-2.23754 -4.696313,-4.51474 l -0.417229,-1.25377 0.07379,-1.99344 0.07379,-1.99344 0.636242,-1.29239 c 2.720206,-5.52552 11.284274,-5.25854 13.53336,0.4219 l 0.430814,1.08809 v 2.14523 2.14523 l -0.435757,1.10131 c -1.357805,3.43162 -5.263537,5.19201 -9.1987,4.14602 z m 3.708444,-3.5639 c 0.436014,-0.23375 0.854251,-0.70363 1.167084,-1.31119 l 0.487553,-0.94689 v -1.57058 -1.57058 l -0.487553,-0.94689 c -1.133083,-2.20059 -3.990573,-2.24157 -5.115771,-0.0734 -0.837903,1.6146 -0.568507,4.96911 0.478019,5.95227 0.935586,0.87894 2.348017,1.06908 3.470668,0.46723 z m 30.127719,3.60053 c -3.61005,-0.89215 -5.65637,-4.00626 -5.30512,-8.07338 0.31912,-3.69506 2.24221,-6.04806 5.54324,-6.78247 l 1.4994,-0.33359 1.32232,0.20468 c 3.77472,0.58427 6.00864,3.39688 6.00864,7.56517 v 1.06302 h -4.16574 c -2.29115,0 -4.5729,0.0558 -5.07054,0.12402 l -0.90482,0.12402 v 0.3713 c 0,2.39392 3.48546,3.55071 5.40388,1.79351 l 0.718,-0.65766 h 1.80308 c 2.0963,0 2.17603,0.0647 1.59694,1.2967 -1.30551,2.77735 -4.89778,4.18236 -8.44928,3.30468 z m 4.77801,-9.45389 c 0,-2.56653 -4.01595,-3.2169 -5.38967,-0.87283 -0.76553,1.30628 -0.70655,1.33737 2.53704,1.33737 h 2.85263 z m 10.23454,9.38865 c -1.92971,-0.69076 -3.04098,-1.89643 -3.78579,-4.10736 l -0.40309,-1.19656 v -2.03333 c 0,-3.36749 1.03147,-5.69573 3.04653,-6.87664 l 0.91548,-0.5365 1.60249,-0.0841 c 1.96932,-0.10336 2.80349,0.14797 3.92637,1.183 l 0.84525,0.77913 v -3.63933 -3.639322 l 2.09647,0.0554 2.09648,0.0554 0.0505,9.994832 0.0505,9.99483 h -2.04949 -2.04949 v -1.00755 -1.00756 l -0.73133,0.78595 c -1.40611,1.51112 -3.57973,2.00691 -5.61093,1.27982 z m 4.77004,-3.72478 c 0.26153,-0.19135 0.65644,-0.59011 0.87759,-0.88614 l 0.4021,-0.53823 0.0694,-1.77524 c 0.0847,-2.16637 -0.15738,-3.04733 -1.05373,-3.83434 l -0.68695,-0.60315 h -1.18629 -1.18628 l -0.7384,0.7384 c -1.86343,1.86342 -1.5192,5.93615 0.59373,7.02473 l 0.87313,0.44984 0.78008,-0.11398 c 0.42905,-0.0627 0.99406,-0.27053 1.25559,-0.46189 z m -41.286041,-3.59041 0.05113,-7.26454 1.982013,-0.0554 1.982011,-0.0554 0.12381,0.56368 c 0.0681,0.31002 0.10921,0.64211 0.0914,0.73796 -0.12257,0.6586 0.0783,0.67243 0.598578,0.0412 0.32165,-0.39022 0.983819,-0.90264 1.471479,-1.13872 l 0.88666,-0.42922 h 1.47183 1.47183 l 1.09687,0.56097 c 2.24029,1.14572 2.57253,2.35425 2.57253,9.35755 v 4.94642 h -2.14523 -2.14523 v -4.57905 -4.57905 l -0.29823,-0.74534 c -0.76543,-1.913 -3.87983,-1.87786 -4.686537,0.0529 l -0.2808,0.67203 v 4.58926 4.58926 h -2.147606 -2.147606 z m 50.269061,-0.0488 v -7.31329 h 2.04772 2.04772 v 1.00756 1.00755 l 0.74628,-0.80835 c 1.85292,-2.00708 5.2236,-1.97292 7.02289,0.0712 l 0.74203,0.84298 0.33289,-0.56353 c 0.4723,-0.79955 1.26809,-1.30853 2.58949,-1.6562 2.89504,-0.76173 5.30173,0.56276 6.0125,3.30888 l 0.30084,1.16234 v 5.12709 5.12708 h -2.13599 -2.136 l -0.058,-5.08684 -0.058,-5.08684 -0.66167,-0.59091 -0.66167,-0.5909 -0.95362,0.0916 c -2.01639,0.19375 -2.33877,1.15653 -2.30231,6.87589 0.0137,2.14523 0.0184,4.01012 0.0106,4.1442 -0.0105,0.17863 -0.56148,0.24377 -2.06202,0.24377 h -2.04772 v -4.7877 -4.7877 l -0.29583,-0.57208 c -0.84944,-1.64263 -3.21086,-1.48753 -4.00568,0.2631 l -0.37043,0.8159 -0.004,4.53424 -0.004,4.53424 h -2.04772 -2.04772 z"
         id="path1-7"
         clip-path="url(#clipPath5)"
         transform="translate(1.6793237,99.703529)" /><path
         id="path1-7-0"
         clip-path="url(#clipPath5-3)"
         style="fill:#08c06f;fill-opacity:1"
         transform="translate(-0.09379545,49.543147)"
         d="m 40.470659,93.368027 -0.887801,0.410827 c -1.236757,0.57225 -2.209095,1.47993 -2.748669,2.565735 l -0.458887,0.923975 v 11.993586 11.9941 l 0.422713,0.79013 c 0.884818,1.65275 2.287164,2.59753 4.156335,2.80035 0.592028,0.0643 6.693121,0.088 13.557829,0.0532 l 12.481409,-0.063 0.779797,-0.34572 c 1.193664,-0.52892 1.973808,-1.29078 2.574003,-2.51302 l 0.54622,-1.11208 -0.06356,-11.79876 -0.06356,-11.798766 -0.344165,-0.780315 c -0.526005,-1.19225 -1.288348,-1.973363 -2.511474,-2.574003 L 66.798251,93.368027 H 53.634713 Z m 97.023021,3.789432 v 3.639571 3.63957 l -0.84543,-0.77928 c -1.12288,-1.03503 -1.9571,-1.28623 -3.92637,-1.18287 l -1.60249,0.0837 -0.91519,0.53692 c -2.01506,1.18091 -3.04684,3.50914 -3.04684,6.87658 v 2.03296 l 0.40307,1.19682 c 0.74481,2.21093 1.85611,3.41648 3.78582,4.10724 2.0312,0.72709 4.20492,0.23157 5.61103,-1.2795 l 0.73122,-0.786 v 1.00769 1.00717 h 2.04948 2.04949 l -0.0506,-9.99474 -0.0501,-9.994736 -2.09651,-0.05529 z m -83.937515,1.573548 h 9.2568 l 0.627351,0.267684 c 1.83858,0.783405 2.063441,1.727669 1.939417,8.160229 l -0.09664,5.01519 -0.849561,-0.74724 c -3.122179,-2.74822 -7.711319,-0.76041 -8.239807,3.56929 l -0.121439,0.99426 -2.885612,0.0543 -2.885095,0.0537 -2.319239,1.84743 c -1.275648,1.01609 -2.369009,1.84744 -2.429309,1.84744 -0.0603,0 -0.109554,-0.81844 -0.109554,-1.81901 v -1.81953 l -0.977718,-0.22531 c -1.295405,-0.29902 -1.882657,-0.71086 -2.391068,-1.67535 l -0.421163,-0.79892 0.05064,-6.21771 0.05064,-6.21822 0.265617,-0.51005 c 0.921842,-1.771002 0.965126,-1.778183 11.53573,-1.778183 z m 64.514925,3.453533 -1.49913,0.33332 c -3.30103,0.73436 -5.22421,3.08747 -5.54333,6.78253 -0.35125,4.06707 1.69505,7.18126 5.3051,8.07341 3.5515,0.87768 7.14359,-0.52736 8.4491,-3.30471 0.57904,-1.232 0.49949,-1.29656 -1.59681,-1.29656 h -1.80299 l -0.71778,0.65784 c -1.91842,1.7572 -5.40432,0.60023 -5.40432,-1.79369 v -0.37104 l 0.90485,-0.12402 c 0.49764,-0.0682 2.77934,-0.12402 5.07049,-0.12402 h 4.16616 v -1.06299 c 0,-4.16824 -2.23422,-6.98116 -6.00894,-7.56543 z m -32.959745,0.11369 c -2.762164,-0.0861 -5.583152,1.22873 -6.943245,3.99149 l -0.636654,1.29243 -0.07338,1.99316 -0.0739,1.99367 0.417029,1.25367 c 0.7578,2.2772 2.469723,3.9226 4.696354,4.51446 3.935143,1.04599 7.841122,-0.71443 9.198922,-4.146 l 0.435632,-1.10123 v -2.14509 -2.14509 l -0.430981,-1.0883 c -1.124538,-2.84022 -3.827615,-4.32706 -6.589779,-4.41317 z m 77.577695,0.0439 c -0.64385,-0.06 -1.3371,2.5e-4 -2.06086,0.19068 -1.3214,0.34767 -2.1172,0.85668 -2.5895,1.65623 l -0.3328,0.56327 -0.74207,-0.84284 c -1.79929,-2.04412 -5.16991,-2.07843 -7.02283,-0.0713 l -0.74621,0.80822 v -1.00718 -1.00769 h -2.04793 -2.04743 v 7.31325 l 5.2e-4,7.31325 h 2.04794 2.04742 l 0.004,-4.53409 0.004,-4.53461 0.37,-0.81597 c 0.79482,-1.75063 3.15652,-1.90566 4.00596,-0.26303 l 0.29559,0.57206 v 4.78782 4.78782 h 2.04794 c 1.50054,0 2.05139,-0.0653 2.06189,-0.24391 0.008,-0.13408 0.003,-1.99875 -0.01,-4.14393 -0.0365,-5.71936 0.28579,-6.68232 2.30218,-6.87607 l 0.95343,-0.0915 0.66198,0.59066 0.66146,0.59118 0.0579,5.08651 0.0584,5.08703 h 2.13579 2.13578 v -5.12733 -5.12682 l -0.30075,-1.16221 c -0.53308,-2.05954 -2.02016,-3.31964 -3.9517,-3.49952 z m -60.67175,0.0512 -0.88677,0.42891 c -0.48766,0.23608 -1.149576,0.74873 -1.471226,1.13895 -0.520273,0.63123 -0.720983,0.6171 -0.598413,-0.0413 0.01781,-0.0958 -0.02337,-0.42792 -0.09147,-0.73794 l -0.124023,-0.56379 -1.981792,0.0553 -1.982308,0.0558 -0.05116,7.26416 -0.05116,7.26467 h 2.147673 2.147672 v -4.58938 -4.58939 l 0.28112,-0.67179 c 0.806707,-1.93076 3.921107,-1.96575 4.686537,-0.0527 l 0.29818,0.74517 v 4.57905 4.57905 h 2.14508 2.14509 v -4.94647 c 0,-7.00325 -0.33216,-8.21185 -2.57245,-9.35757 l -1.09657,-0.56068 h -1.47227 z m 16.58038,3.21117 c 1.3131,0.0811 2.51406,0.91205 2.51406,2.31562 v 0.46457 h -2.85254 c -3.24354,0 -3.30284,-0.0311 -2.53731,-1.33739 0.51514,-0.87898 1.40226,-1.33721 2.30942,-1.43092 0.18899,-0.0195 0.37879,-0.0235 0.56637,-0.0119 z m -33.785531,0.14779 c 0.996652,0.0143 1.994543,0.57454 2.561084,1.67484 l 0.487308,0.94723 v 1.57044 1.57045 l -0.487308,0.94723 c -0.312833,0.60756 -0.731362,1.07728 -1.167371,1.31103 -1.122646,0.60185 -2.535008,0.41178 -3.470589,-0.46716 -1.046521,-0.98311 -1.315905,-4.33805 -0.478007,-5.9526 0.562594,-1.08409 1.55823,-1.61575 2.554883,-1.60146 z m 48.540191,0.19431 h 1.18597 1.18649 l 0.68678,0.60358 c 0.89635,0.78701 1.13839,1.66802 1.05369,3.83439 l -0.0693,1.77508 -0.40204,0.53796 c -0.22115,0.29603 -0.61594,0.6949 -0.87747,0.88625 -0.26153,0.19136 -0.82669,0.39928 -1.25574,0.46198 l -0.78031,0.11421 -0.87282,-0.4501 c -2.11288,-1.08858 -2.45719,-5.16148 -0.59376,-7.0249 z m -83.605751,1.91409 c -1.77e-4,0.005 2.02e-4,0.0109 0,0.016 l 2.343526,-0.016 h -0.65164 z m 11.25461,3.28921 c 2.864298,-0.1702 5.340507,2.84293 3.840592,5.85287 -0.480489,0.96423 -1.484667,1.85488 -2.333707,2.07016 -0.922966,0.23405 -1.407488,0.26784 -2.066541,0.14366 -1.767769,-0.33308 -3.106392,-1.81025 -3.254065,-3.591 l -0.08785,-1.06143 0.497644,-1.08727 0.497644,-1.08728 0.905371,-0.57412 c 0.658251,-0.41745 1.339921,-0.62632 2.000912,-0.66559 z m 0.463537,2.16886 c -0.146999,-10e-4 -0.224275,0.10356 -0.224275,0.31729 0,0.13533 0.176015,0.40574 0.39119,0.60048 0.531361,0.48087 0.412139,0.5416 -1.22008,0.6258 -2.266132,0.11689 -2.42715,0.88033 -0.1757,0.83303 1.907035,-0.0401 1.846268,-0.0651 1.374076,0.5736 -0.242318,0.32775 -0.37015,0.70613 -0.30024,0.88832 0.162154,0.42257 0.463935,0.23061 1.556494,-0.98908 l 0.888318,-0.99168 -1.013375,-0.98391 c -0.593437,-0.57616 -1.031402,-0.87211 -1.276408,-0.87385 z"
         inkscape:export-filename="1dmsq.svg"
         inkscape:export-xdpi="96"
         inkscape:export-ydpi="96" /><text
         xml:space="preserve"
         style="font-size:28.901px;line-height:4.4;font-family:Sans;-inkscape-font-specification:'Sans, Normal';text-align:center;letter-spacing:0px;text-anchor:middle;fill:#ffffff;fill-opacity:1;fill-rule:evenodd;stroke:#08c06f;stroke-width:0;stroke-dasharray:none;paint-order:markers fill stroke"
         x="134.96945"
         y="262.04312"
         id="text5-0"
         inkscape:export-filename="1dmnew11.png"
         inkscape:export-xdpi="96"
         inkscape:export-ydpi="96"><tspan
           sodipodi:role="line"
           id="tspan5-1"
           x="134.96945"
           y="262.04312"
           style="font-style:normal;font-variant:normal;font-weight:bold;font-stretch:normal;font-size:31.2984px;line-height:4.4;font-family:Sans;-inkscape-font-specification:'Sans, Bold';font-variant-ligatures:normal;font-variant-caps:normal;font-variant-numeric:normal;font-variant-east-asian:normal;letter-spacing:0px;direction:ltr;fill:#ffffff;fill-opacity:1;stroke-width:0"
           dy="0"
           dx="0">onedm</tspan></text><path
         style="fill:#ffffff;fill-opacity:1"
         d="m 40.954293,124.84663 c -1.869181,-0.20282 -3.271223,-1.14748 -4.156046,-2.80023 L 36.375095,121.256 V 109.2622 97.268398 l 0.459198,-0.92406 c 0.539579,-1.08581 1.51198,-1.99346 2.748742,-2.56571 l 0.887504,-0.41065 h 13.163924 13.163925 l 1.112419,0.54627 c 1.223136,0.60064 1.985287,1.38185 2.511289,2.57407 l 0.34417,0.78008 0.06378,11.798782 0.06378,11.79877 -0.546271,1.11242 c -0.6002,1.22224 -1.380397,1.98386 -2.574066,2.51278 l -0.780085,0.34566 -12.481351,0.0633 c -6.864743,0.0348 -12.965737,0.0108 -13.557765,-0.0535 z m 7.027947,-6.90073 2.319379,-1.84744 2.885304,-0.054 2.885304,-0.054 0.121352,-0.9942 c 0.528488,-4.32975 5.117874,-6.31788 8.240073,-3.56961 l 0.849193,0.74749 0.09669,-5.01509 c 0.124024,-6.43256 -0.100416,-7.377152 -1.939001,-8.160562 l -0.627555,-0.2674 h -9.257071 c -10.570659,0 -10.613488,0.007 -11.535335,1.778022 l -0.265602,0.51038 -0.0508,6.21785 -0.0508,6.21784 0.421207,0.79905 c 0.508416,0.96449 1.095976,1.37605 2.391386,1.67507 l 0.977607,0.22566 v 1.8192 c 0,1.00057 0.04934,1.81921 0.109642,1.81921 0.0603,0 1.153363,-0.83135 2.429021,-1.84744 z m -2.043749,-6.60361 -0.382681,-0.28269 0.260295,-0.31364 0.260294,-0.31363 h 4.340216 4.340216 l 0.24964,0.30079 0.249639,0.3008 -0.235125,0.23551 c -0.165327,0.1656 -1.49153,0.25333 -4.467469,0.29554 l -4.232344,0.06 z m -0.109851,-3.74377 c -0.52532,-0.63297 0.07047,-0.6816 7.720388,-0.63014 l 7.593748,0.0511 v 0.39004 0.39004 l -7.531308,0.051 -7.531307,0.051 z m -0.123677,-3.71024 c -0.244254,-0.63652 0.255418,-0.67635 7.844065,-0.6253 l 7.593748,0.0511 v 0.39004 0.39004 l -7.659829,0.051 -7.659828,0.051 z m 16.802961,15.18485 c 0.849045,-0.21528 1.853302,-1.1062 2.333796,-2.07043 1.846056,-3.70455 -2.330736,-7.41347 -5.841408,-5.18706 l -0.905228,0.57407 -0.497759,1.08725 -0.497759,1.08725 0.08801,1.06123 c 0.147673,1.78075 1.486341,3.25806 3.25412,3.59114 0.659058,0.12418 1.143261,0.0906 2.066232,-0.14345 z m -1.198372,-1.91586 c -0.06991,-0.18219 0.05803,-0.56064 0.300348,-0.88839 0.472192,-0.63867 0.532782,-0.6134 -1.374263,-0.57332 -2.25146,0.0473 -2.090362,-0.71609 0.17578,-0.83298 1.632229,-0.0842 1.751468,-0.14539 1.220107,-0.62626 -0.21518,-0.19474 -0.391237,-0.46479 -0.391237,-0.60012 0,-0.56996 0.551433,-0.36559 1.50094,0.55626 l 1.013387,0.98387 -0.888673,0.99211 c -1.092564,1.21974 -1.394235,1.4114 -1.556389,0.98883 z m 21.188035,0.18006 c -2.226641,-0.59186 -3.938508,-2.23754 -4.696313,-4.51474 l -0.417229,-1.25377 0.07379,-1.99344 0.07379,-1.99344 0.636242,-1.29239 c 2.720206,-5.52552 11.284274,-5.25854 13.53336,0.4219 l 0.430814,1.08809 v 2.14523 2.14523 l -0.435757,1.10131 c -1.357805,3.43162 -5.263537,5.19201 -9.1987,4.14602 z m 3.708444,-3.5639 c 0.436014,-0.23375 0.854251,-0.70363 1.167084,-1.31119 l 0.487553,-0.94689 v -1.57058 -1.57058 l -0.487553,-0.94689 c -1.133083,-2.20059 -3.990573,-2.24157 -5.115771,-0.0734 -0.837903,1.6146 -0.568507,4.96911 0.478019,5.95227 0.935586,0.87894 2.348017,1.06908 3.470668,0.46723 z m 30.127719,3.60053 c -3.61005,-0.89215 -5.65637,-4.00626 -5.30512,-8.07338 0.31912,-3.69506 2.24221,-6.04806 5.54324,-6.78247 l 1.4994,-0.33359 1.32232,0.20468 c 3.77472,0.58427 6.00864,3.39688 6.00864,7.56517 v 1.06302 h -4.16574 c -2.29115,0 -4.5729,0.0558 -5.07054,0.12402 l -0.90482,0.12402 v 0.3713 c 0,2.39392 3.48546,3.55071 5.40388,1.79351 l 0.718,-0.65766 h 1.80308 c 2.0963,0 2.17603,0.0647 1.59694,1.2967 -1.30551,2.77735 -4.89778,4.18236 -8.44928,3.30468 z m 4.77801,-9.45389 c 0,-2.56653 -4.01595,-3.2169 -5.38967,-0.87283 -0.76553,1.30628 -0.70655,1.33737 2.53704,1.33737 h 2.85263 z m 10.23454,9.38865 c -1.92971,-0.69076 -3.04098,-1.89643 -3.78579,-4.10736 l -0.40309,-1.19656 v -2.03333 c 0,-3.36749 1.03147,-5.69573 3.04653,-6.87664 l 0.91548,-0.5365 1.60249,-0.0841 c 1.96932,-0.10336 2.80349,0.14797 3.92637,1.183 l 0.84525,0.77913 v -3.63933 -3.639322 l 2.09647,0.0554 2.09648,0.0554 0.0505,9.994832 0.0505,9.99483 h -2.04949 -2.04949 v -1.00755 -1.00756 l -0.73133,0.78595 c -1.40611,1.51112 -3.57973,2.00691 -5.61093,1.27982 z m 4.77004,-3.72478 c 0.26153,-0.19135 0.65644,-0.59011 0.87759,-0.88614 l 0.4021,-0.53823 0.0694,-1.77524 c 0.0847,-2.16637 -0.15738,-3.04733 -1.05373,-3.83434 l -0.68695,-0.60315 h -1.18629 -1.18628 l -0.7384,0.7384 c -1.86343,1.86342 -1.5192,5.93615 0.59373,7.02473 l 0.87313,0.44984 0.78008,-0.11398 c 0.42905,-0.0627 0.99406,-0.27053 1.25559,-0.46189 z m -41.286041,-3.59041 0.05113,-7.26454 1.982013,-0.0554 1.982011,-0.0554 0.12381,0.56368 c 0.0681,0.31002 0.10921,0.64211 0.0914,0.73796 -0.12257,0.6586 0.0783,0.67243 0.598578,0.0412 0.32165,-0.39022 0.983819,-0.90264 1.471479,-1.13872 l 0.88666,-0.42922 h 1.47183 1.47183 l 1.09687,0.56097 c 2.24029,1.14572 2.57253,2.35425 2.57253,9.35755 v 4.94642 h -2.14523 -2.14523 v -4.57905 -4.57905 l -0.29823,-0.74534 c -0.76543,-1.913 -3.87983,-1.87786 -4.686537,0.0529 l -0.2808,0.67203 v 4.58926 4.58926 h -2.147606 -2.147606 z m 50.269061,-0.0488 v -7.31329 h 2.04772 2.04772 v 1.00756 1.00755 l 0.74628,-0.80835 c 1.85292,-2.00708 5.2236,-1.97292 7.02289,0.0712 l 0.74203,0.84298 0.33289,-0.56353 c 0.4723,-0.79955 1.26809,-1.30853 2.58949,-1.6562 2.89504,-0.76173 5.30173,0.56276 6.0125,3.30888 l 0.30084,1.16234 v 5.12709 5.12708 h -2.13599 -2.136 l -0.058,-5.08684 -0.058,-5.08684 -0.66167,-0.59091 -0.66167,-0.5909 -0.95362,0.0916 c -2.01639,0.19375 -2.33877,1.15653 -2.30231,6.87589 0.0137,2.14523 0.0184,4.01012 0.0106,4.1442 -0.0105,0.17863 -0.56148,0.24377 -2.06202,0.24377 h -2.04772 v -4.7877 -4.7877 l -0.29583,-0.57208 c -0.84944,-1.64263 -3.21086,-1.48753 -4.00568,0.2631 l -0.37043,0.8159 -0.004,4.53424 -0.004,4.53424 h -2.04772 -2.04772 z"
         id="path1-7-4"
         clip-path="url(#clipPath5-8)"
         transform="translate(1.8305442,141.27882)"
         inkscape:export-filename="1dmnew11.png"
         inkscape:export-xdpi="96"
         inkscape:export-ydpi="96" /><text
         xml:space="preserve"
         style="font-style:normal;font-variant:normal;font-weight:bold;font-stretch:normal;font-size:9.43457px;line-height:4.4;font-family:Sans;-inkscape-font-specification:'Sans, Bold';font-variant-ligatures:normal;font-variant-caps:normal;font-variant-numeric:normal;font-variant-east-asian:normal;text-align:center;letter-spacing:0px;word-spacing:13.2674px;writing-mode:lr-tb;direction:ltr;text-anchor:middle;fill:#08c06f;fill-opacity:1;fill-rule:evenodd;stroke:#08c06f;stroke-width:0;stroke-dasharray:none;paint-order:markers fill stroke"
         x="52.945461"
         y="158.6593"
         id="text12"><tspan
           sodipodi:role="line"
           id="tspan12"
           style="fill:#08c06f;fill-opacity:1;stroke-width:0"
           x="52.945461"
           y="158.6593">1dm</tspan></text><path
         style="fill:#08c06f;fill-opacity:1"
         d="m 40.954293,124.84663 c -1.869181,-0.20282 -3.271223,-1.14748 -4.156046,-2.80023 L 36.375095,121.256 V 109.2622 97.268398 l 0.459198,-0.92406 c 0.539579,-1.08581 1.51198,-1.99346 2.748742,-2.56571 l 0.887504,-0.41065 h 13.163924 13.163925 l 1.112419,0.54627 c 1.223136,0.60064 1.985287,1.38185 2.511289,2.57407 l 0.34417,0.78008 0.06378,11.798782 0.06378,11.79877 -0.546271,1.11242 c -0.6002,1.22224 -1.380397,1.98386 -2.574066,2.51278 l -0.780085,0.34566 -12.481351,0.0633 c -6.864743,0.0348 -12.965737,0.0108 -13.557765,-0.0535 z m 7.027947,-6.90073 2.319379,-1.84744 2.885304,-0.054 2.885304,-0.054 0.121352,-0.9942 c 0.528488,-4.32975 5.117874,-6.31788 8.240073,-3.56961 l 0.849193,0.74749 0.09669,-5.01509 c 0.124024,-6.43256 -0.100416,-7.377152 -1.939001,-8.160562 l -0.627555,-0.2674 h -9.257071 c -10.570659,0 -10.613488,0.007 -11.535335,1.778022 l -0.265602,0.51038 -0.0508,6.21785 -0.0508,6.21784 0.421207,0.79905 c 0.508416,0.96449 1.095976,1.37605 2.391386,1.67507 l 0.977607,0.22566 v 1.8192 c 0,1.00057 0.04934,1.81921 0.109642,1.81921 0.0603,0 1.153363,-0.83135 2.429021,-1.84744 z m -2.043749,-6.60361 -0.382681,-0.28269 0.260295,-0.31364 0.260294,-0.31363 h 4.340216 4.340216 l 0.24964,0.30079 0.249639,0.3008 -0.235125,0.23551 c -0.165327,0.1656 -1.49153,0.25333 -4.467469,0.29554 l -4.232344,0.06 z m -0.109851,-3.74377 c -0.52532,-0.63297 0.07047,-0.6816 7.720388,-0.63014 l 7.593748,0.0511 v 0.39004 0.39004 l -7.531308,0.051 -7.531307,0.051 z m -0.123677,-3.71024 c -0.244254,-0.63652 0.255418,-0.67635 7.844065,-0.6253 l 7.593748,0.0511 v 0.39004 0.39004 l -7.659829,0.051 -7.659828,0.051 z m 16.802961,15.18485 c 0.849045,-0.21528 1.853302,-1.1062 2.333796,-2.07043 1.846056,-3.70455 -2.330736,-7.41347 -5.841408,-5.18706 l -0.905228,0.57407 -0.497759,1.08725 -0.497759,1.08725 0.08801,1.06123 c 0.147673,1.78075 1.486341,3.25806 3.25412,3.59114 0.659058,0.12418 1.143261,0.0906 2.066232,-0.14345 z m -1.198372,-1.91586 c -0.06991,-0.18219 0.05803,-0.56064 0.300348,-0.88839 0.472192,-0.63867 0.532782,-0.6134 -1.374263,-0.57332 -2.25146,0.0473 -2.090362,-0.71609 0.17578,-0.83298 1.632229,-0.0842 1.751468,-0.14539 1.220107,-0.62626 -0.21518,-0.19474 -0.391237,-0.46479 -0.391237,-0.60012 0,-0.56996 0.551433,-0.36559 1.50094,0.55626 l 1.013387,0.98387 -0.888673,0.99211 c -1.092564,1.21974 -1.394235,1.4114 -1.556389,0.98883 z m 21.188035,0.18006 c -2.226641,-0.59186 -3.938508,-2.23754 -4.696313,-4.51474 l -0.417229,-1.25377 0.07379,-1.99344 0.07379,-1.99344 0.636242,-1.29239 c 2.720206,-5.52552 11.284274,-5.25854 13.53336,0.4219 l 0.430814,1.08809 v 2.14523 2.14523 l -0.435757,1.10131 c -1.357805,3.43162 -5.263537,5.19201 -9.1987,4.14602 z m 3.708444,-3.5639 c 0.436014,-0.23375 0.854251,-0.70363 1.167084,-1.31119 l 0.487553,-0.94689 v -1.57058 -1.57058 l -0.487553,-0.94689 c -1.133083,-2.20059 -3.990573,-2.24157 -5.115771,-0.0734 -0.837903,1.6146 -0.568507,4.96911 0.478019,5.95227 0.935586,0.87894 2.348017,1.06908 3.470668,0.46723 z m 30.127719,3.60053 c -3.61005,-0.89215 -5.65637,-4.00626 -5.30512,-8.07338 0.31912,-3.69506 2.24221,-6.04806 5.54324,-6.78247 l 1.4994,-0.33359 1.32232,0.20468 c 3.77472,0.58427 6.00864,3.39688 6.00864,7.56517 v 1.06302 h -4.16574 c -2.29115,0 -4.5729,0.0558 -5.07054,0.12402 l -0.90482,0.12402 v 0.3713 c 0,2.39392 3.48546,3.55071 5.40388,1.79351 l 0.718,-0.65766 h 1.80308 c 2.0963,0 2.17603,0.0647 1.59694,1.2967 -1.30551,2.77735 -4.89778,4.18236 -8.44928,3.30468 z m 4.77801,-9.45389 c 0,-2.56653 -4.01595,-3.2169 -5.38967,-0.87283 -0.76553,1.30628 -0.70655,1.33737 2.53704,1.33737 h 2.85263 z m 10.23454,9.38865 c -1.92971,-0.69076 -3.04098,-1.89643 -3.78579,-4.10736 l -0.40309,-1.19656 v -2.03333 c 0,-3.36749 1.03147,-5.69573 3.04653,-6.87664 l 0.91548,-0.5365 1.60249,-0.0841 c 1.96932,-0.10336 2.80349,0.14797 3.92637,1.183 l 0.84525,0.77913 v -3.63933 -3.639322 l 2.09647,0.0554 2.09648,0.0554 0.0505,9.994832 0.0505,9.99483 h -2.04949 -2.04949 v -1.00755 -1.00756 l -0.73133,0.78595 c -1.40611,1.51112 -3.57973,2.00691 -5.61093,1.27982 z m 4.77004,-3.72478 c 0.26153,-0.19135 0.65644,-0.59011 0.87759,-0.88614 l 0.4021,-0.53823 0.0694,-1.77524 c 0.0847,-2.16637 -0.15738,-3.04733 -1.05373,-3.83434 l -0.68695,-0.60315 h -1.18629 -1.18628 l -0.7384,0.7384 c -1.86343,1.86342 -1.5192,5.93615 0.59373,7.02473 l 0.87313,0.44984 0.78008,-0.11398 c 0.42905,-0.0627 0.99406,-0.27053 1.25559,-0.46189 z m -41.286041,-3.59041 0.05113,-7.26454 1.982013,-0.0554 1.982011,-0.0554 0.12381,0.56368 c 0.0681,0.31002 0.10921,0.64211 0.0914,0.73796 -0.12257,0.6586 0.0783,0.67243 0.598578,0.0412 0.32165,-0.39022 0.983819,-0.90264 1.471479,-1.13872 l 0.88666,-0.42922 h 1.47183 1.47183 l 1.09687,0.56097 c 2.24029,1.14572 2.57253,2.35425 2.57253,9.35755 v 4.94642 h -2.14523 -2.14523 v -4.57905 -4.57905 l -0.29823,-0.74534 c -0.76543,-1.913 -3.87983,-1.87786 -4.686537,0.0529 l -0.2808,0.67203 v 4.58926 4.58926 h -2.147606 -2.147606 z m 50.269061,-0.0488 v -7.31329 h 2.04772 2.04772 v 1.00756 1.00755 l 0.74628,-0.80835 c 1.85292,-2.00708 5.2236,-1.97292 7.02289,0.0712 l 0.74203,0.84298 0.33289,-0.56353 c 0.4723,-0.79955 1.26809,-1.30853 2.58949,-1.6562 2.89504,-0.76173 5.30173,0.56276 6.0125,3.30888 l 0.30084,1.16234 v 5.12709 5.12708 h -2.13599 -2.136 l -0.058,-5.08684 -0.058,-5.08684 -0.66167,-0.59091 -0.66167,-0.5909 -0.95362,0.0916 c -2.01639,0.19375 -2.33877,1.15653 -2.30231,6.87589 0.0137,2.14523 0.0184,4.01012 0.0106,4.1442 -0.0105,0.17863 -0.56148,0.24377 -2.06202,0.24377 h -2.04772 v -4.7877 -4.7877 l -0.29583,-0.57208 c -0.84944,-1.64263 -3.21086,-1.48753 -4.00568,0.2631 l -0.37043,0.8159 -0.004,4.53424 -0.004,4.53424 h -2.04772 -2.04772 z"
         id="path1-2"
         clip-path="url(#clipPath12)"
         transform="translate(61.520736,45.273688)"
         inkscape:export-filename="1dmsq.png"
         inkscape:export-xdpi="96"
         inkscape:export-ydpi="96" /></g></g></svg>
